<svg width="296" height="28" viewBox="0 0 296 28" fill="none" xmlns="http://www.w3.org/2000/svg">
<path d="M0.64 -1.90735e-06H6.92L9.72 20.04H9.8L12.6 -1.90735e-06H18.88V28H14.72V6.8H14.64L11.44 28H7.76L4.56 6.8H4.48V28H0.64V-1.90735e-06ZM49.5634 -1.90735e-06H55.5234L60.0834 28H55.6834L54.8834 22.44V22.52H49.8834L49.0834 28H45.0034L49.5634 -1.90735e-06ZM54.3634 18.72L52.4034 4.88H52.3234L50.4034 18.72H54.3634ZM86.2181 -1.90735e-06H92.8581C95.1248 -1.90735e-06 96.7781 0.533332 97.8181 1.6C98.8581 2.64 99.3781 4.25333 99.3781 6.44V7.56C99.3781 9 99.1381 10.1733 98.6581 11.08C98.2048 11.9867 97.4981 12.64 96.5381 13.04V13.12C98.7248 13.8667 99.8181 15.8133 99.8181 18.96V21.36C99.8181 23.52 99.2448 25.1733 98.0981 26.32C96.9781 27.44 95.3248 28 93.1381 28H86.2181V-1.90735e-06ZM92.3381 11.4C93.2181 11.4 93.8715 11.1733 94.2981 10.72C94.7515 10.2667 94.9781 9.50667 94.9781 8.44V6.88C94.9781 5.86667 94.7915 5.13333 94.4181 4.68C94.0715 4.22667 93.5115 4 92.7381 4H90.6181V11.4H92.3381ZM93.1381 24C93.9115 24 94.4848 23.8 94.8581 23.4C95.2315 22.9733 95.4181 22.2533 95.4181 21.24V18.8C95.4181 17.52 95.1915 16.64 94.7381 16.16C94.3115 15.6533 93.5915 15.4 92.5781 15.4H90.6181V24H93.1381ZM129.805 16.08L124.485 -1.90735e-06H129.165L132.165 10.28H132.245L135.245 -1.90735e-06H139.525L134.205 16.08V28H129.805V16.08ZM169.103 4H164.503V-1.90735e-06H178.103V4H173.503V28H169.103V4ZM208.43 16.08L203.11 -1.90735e-06H207.79L210.79 10.28H210.87L213.87 -1.90735e-06H218.15L212.83 16.08V28H208.43V16.08ZM244.132 -1.90735e-06H250.612C252.799 -1.90735e-06 254.439 0.586665 255.532 1.76C256.626 2.93333 257.172 4.65333 257.172 6.92V9.68C257.172 11.9467 256.626 13.6667 255.532 14.84C254.439 16.0133 252.799 16.6 250.612 16.6H248.532V28H244.132V-1.90735e-06ZM250.612 12.6C251.332 12.6 251.866 12.4 252.212 12C252.586 11.6 252.772 10.92 252.772 9.96V6.64C252.772 5.68 252.586 5 252.212 4.6C251.866 4.2 251.332 4 250.612 4H248.532V12.6H250.612ZM283.562 -1.90735e-06H295.562V4H287.962V11.4H294.002V15.4H287.962V24H295.562V28H283.562V-1.90735e-06Z" fill="#F4F3F1"/>
</svg>
