<svg width="30" height="31" viewBox="0 0 30 31" fill="none" xmlns="http://www.w3.org/2000/svg">
<path fill-rule="evenodd" clip-rule="evenodd" d="M28.6449 14.1504C27.8362 14.3297 27.0351 13.8194 26.8558 13.0106L26.6151 11.9247L26.3004 10.9264L25.8998 9.95935L25.4164 9.03089L24.854 8.14807L24.2168 7.31764L23.5097 6.5459L22.7379 5.83873L21.9075 5.20152L21.0247 4.6391L20.0962 4.15577L19.1291 3.7552L18.1308 3.44044L17.1089 3.21389L16.0711 3.07726L15.0254 3.0316L13.9796 3.07726L12.9419 3.21388L11.9199 3.44044L10.9216 3.7552L9.95456 4.15578L9.0261 4.6391L8.14328 5.20152L7.31285 5.83874L6.54111 6.5459L5.83394 7.31764L5.19673 8.14807L4.63432 9.03088L4.15098 9.95936L3.75042 10.9264L3.43565 11.9247L3.2091 12.9466L3.07247 13.9844L3.02681 15.0302L3.07247 16.0759L3.2091 17.1137L3.43565 18.1356L3.75041 19.1339L4.15098 20.101L4.63432 21.0295L5.19673 21.9123L5.83394 22.7427L6.54112 23.5144L7.31285 24.2216L8.14327 24.8588L9.02612 25.4213L9.95457 25.9046L10.9216 26.3051L11.9199 26.6199L12.9419 26.8465L13.9796 26.9831L15.0908 27.0316C15.9185 27.0677 16.5601 27.768 16.524 28.5956C16.4878 29.4232 15.7876 30.0649 14.96 30.0287L13.7179 29.9745L12.4204 29.8037L11.1427 29.5204L9.89459 29.1269L8.6855 28.6261L7.52467 28.0218L6.42092 27.3186L5.38265 26.5219L4.41777 25.6378L3.53362 24.6729L2.73693 23.6346L2.03376 22.5309L1.42947 21.37L0.928653 20.161L0.535117 18.9128L0.251859 17.6351L0.0810375 16.3376L0.0239531 15.0302L0.081041 13.7227L0.25186 12.4252L0.535117 11.1475L0.92865 9.89938L1.42947 8.69029L2.03376 7.52945L2.73693 6.4257L3.53362 5.38744L4.41777 4.42256L5.38265 3.53841L6.42091 2.74172L7.52467 2.03855L8.68551 1.43426L9.89459 0.933439L11.1427 0.539904L12.4204 0.256647L13.7179 0.0858262L15.0254 0.0287414L16.3328 0.0858261L17.6304 0.256647L18.908 0.539902L20.1562 0.933438L21.3653 1.43426L22.5261 2.03855L23.6298 2.74172L24.6681 3.53841L25.633 4.42256L26.5171 5.38744L27.3138 6.4257L28.017 7.52946L28.6213 8.69029L29.1221 9.89938L29.5156 11.1475L29.7847 12.3613C29.964 13.1701 29.4537 13.9711 28.6449 14.1504Z" fill="#f4f3f1"/>
</svg>
